<svg
                xmlns="http://www.w3.org/2000/svg"
                width="370"
                height="334"
                viewBox="0 0 370 334"
              >
                <g id="Calendar" transform="translate(0 -25)">
                  <path
                    id="Path_1"
                    data-name="Path 1"
                    d="M370,129.183V86.5A32.575,32.575,0,0,0,337.48,53.94h-4.336V93.732a10.84,10.84,0,1,1-21.68,0V35.852a10.84,10.84,0,1,0-21.68,0V53.94H217.52V93.732a10.84,10.84,0,1,1-21.68,0V35.852a10.84,10.84,0,1,0-21.68,0V53.94H101.895V93.732a10.84,10.84,0,1,1-21.68,0V35.852a10.84,10.84,0,1,0-21.68,0V53.94H32.52A32.575,32.575,0,0,0,0,86.5v42.686Z"
                    transform="translate(0 0)"
                    fill="#fff"
                  />
                  <path
                    id="Path_2"
                    data-name="Path 2"
                    d="M0,199V374.808a32.575,32.575,0,0,0,32.52,32.557H337.48A32.575,32.575,0,0,0,370,374.808V199ZM104.062,349.486H80.938a10.852,10.852,0,0,1,0-21.7h23.125a10.852,10.852,0,0,1,0,21.7Zm0-46.3H80.938a10.852,10.852,0,0,1,0-21.7h23.125a10.852,10.852,0,0,1,0,21.7Zm0-46.3H80.938a10.852,10.852,0,0,1,0-21.7h23.125a10.852,10.852,0,0,1,0,21.7Zm92.5,92.607H173.437a10.852,10.852,0,0,1,0-21.7h23.125a10.852,10.852,0,0,1,0,21.7Zm0-46.3H173.437a10.852,10.852,0,0,1,0-21.7h23.125a10.852,10.852,0,0,1,0,21.7Zm0-46.3H173.437a10.852,10.852,0,0,1,0-21.7h23.125a10.852,10.852,0,0,1,0,21.7Zm92.5,92.607H265.938a10.852,10.852,0,0,1,0-21.7h23.125a10.852,10.852,0,0,1,0,21.7Zm0-46.3H265.938a10.852,10.852,0,0,1,0-21.7h23.125a10.852,10.852,0,0,1,0,21.7Zm0-46.3H265.938a10.852,10.852,0,0,1,0-21.7h23.125a10.852,10.852,0,0,1,0,21.7Z"
                    transform="translate(0 -48.365)"
                    fill="#fff"
                  />
                </g>
              </svg>