<svg id="Capa_1" enable-background="new 0 0 512 512" height="512" viewBox="0 0 512 512" width="512" xmlns="http://www.w3.org/2000/svg"><g><path d="m407 0c-57.897 0-105 47.103-105 105s47.103 105 105 105 105-47.103 105-105-47.103-105-105-105zm40.856 124.644c5.858 5.857 5.858 15.355 0 21.213s-15.354 5.858-21.213 0l-19.643-19.644-19.644 19.644c-5.858 5.858-15.354 5.858-21.213 0-5.858-5.857-5.858-15.355 0-21.213l19.644-19.644-19.644-19.644c-5.858-5.857-5.858-15.355 0-21.213 5.857-5.857 15.355-5.857 21.213 0l19.644 19.644 19.644-19.644c5.857-5.857 15.355-5.857 21.213 0s5.858 15.355 0 21.213l-19.644 19.644z"/><path d="m210 105c0-57.897-47.103-105-105-105s-105 47.103-105 105 47.103 105 105 105 105-47.103 105-105zm-63.394-9.394-41 41c-5.858 5.858-15.354 5.858-21.213 0l-19-19c-5.858-5.857-5.858-15.355 0-21.213 5.857-5.857 15.355-5.857 21.213 0l8.394 8.394 30.394-30.394c5.857-5.857 15.355-5.857 21.213 0 5.858 5.858 5.858 15.356-.001 21.213z"/><path d="m390.601 283.842-103.08-12.842v-84c0-18.225-14.775-33-33-33-18.225 0-33 14.775-33 33v162.987l-31.223-26.199c-13.933-11.692-35.857-10.734-48.718 2.127-12.861 12.861-11.984 32.95 1.949 44.642l77.992 65.443v16h197.999c0-56.956.001-134.097.001-135.411 0-16.648-12.4-30.689-28.92-32.747z"/><path d="m221.52 512h198s0-11.981 0-30h-198z"/></g></svg>