<svg class="icon" height="128.00px" version="1.1" viewBox="0 0 1024 1024" width="128px" xmlns="http://www.w3.org/2000/svg">
    <path d="M226.05 459.76c-115.23 0-208.98-93.74-208.98-208.98S110.82 41.8 226.05 41.8s208.98 93.74 208.98 208.98-93.74 208.98-208.98 208.98z m0-376.17c-92.18 0-167.18 75-167.18 167.18s75 167.18 167.18 167.18 167.18-75 167.18-167.18-75-167.18-167.18-167.18z" fill="#333333" />
    <path d="M205.15 323.92c-5.53 0-10.85-2.19-14.78-6.12l-41.8-41.8c-8.16-8.16-8.16-21.39 0-29.55s21.39-8.16 29.55 0l25.29 25.29 69.01-86.26c7.2-9.02 20.39-10.46 29.37-3.27 9.02 7.2 10.48 20.36 3.27 29.37l-83.59 104.49a20.897 20.897 0 0 1-15.16 7.82c-0.39 0.02-0.77 0.03-1.16 0.03zM986.02 271.67H526.27c-11.55 0-20.9-9.36-20.9-20.9s9.35-20.9 20.9-20.9h459.76c11.55 0 20.9 9.36 20.9 20.9-0.01 11.55-9.36 20.9-20.91 20.9z" fill="#333333" />
    <path d="M226.05 982.2c-115.23 0-208.98-93.76-208.98-208.98s93.74-208.98 208.98-208.98S435.03 658 435.03 773.22 341.29 982.2 226.05 982.2z m0-376.16c-92.18 0-167.18 75-167.18 167.18s75 167.18 167.18 167.18 167.18-75 167.18-167.18-75-167.18-167.18-167.18z" fill="#333333" />
    <path d="M205.15 846.37c-5.53 0-10.85-2.18-14.78-6.12l-41.8-41.8c-8.16-8.16-8.16-21.39 0-29.55s21.39-8.16 29.55 0l25.29 25.29 69.01-86.27c7.2-8.98 20.39-10.47 29.37-3.27 9.02 7.22 10.48 20.37 3.27 29.39l-83.59 104.49a20.91 20.91 0 0 1-15.16 7.8c-0.39 0.02-0.77 0.04-1.16 0.04zM986.02 794.12H526.27c-11.55 0-20.9-9.35-20.9-20.9s9.35-20.9 20.9-20.9h459.76c11.55 0 20.9 9.35 20.9 20.9s-9.36 20.9-20.91 20.9z" fill="#333333" />
</svg>