<svg xmlns="http://www.w3.org/2000/svg" width="367.178" height="367.178" viewBox="0 0 367.178 367.178">
    <g id="Group_2" data-name="Group 2" transform="translate(0 0)">
        <g id="Group_1" data-name="Group 1">
            <path id="Path_3" data-name="Path 3" d="M361.061,0H6.12A6.118,6.118,0,0,0,0,6.117v122.4H12.239V12.239h342.7V146.871H140.751V159.11H361.058a6.118,6.118,0,0,0,6.12-6.117V6.12A6.118,6.118,0,0,0,361.061,0Z" transform="translate(0 0)" fill="#fff" />
        </g>
    </g>
    <g id="Group_4" data-name="Group 4" transform="translate(201.636 30.185)">
        <g id="Group_3" data-name="Group 3" transform="translate(0 0)">
            <rect id="Rectangle_9" data-name="Rectangle 9" width="123" height="12" transform="translate(0.364 -0.185)" fill="#fff" />
        </g>
    </g>
    <g id="Group_6" data-name="Group 6" transform="translate(220.954 66.407)">
        <g id="Group_5" data-name="Group 5" transform="translate(0 0)">
            <rect id="Rectangle_10" data-name="Rectangle 10" width="121" height="12" transform="translate(0.045 -0.407)" fill="#fff" />
        </g>
    </g>
    <g id="Group_8" data-name="Group 8" transform="translate(195.599 105.044)">
        <g id="Group_7" data-name="Group 7" transform="translate(0 0)">
            <rect id="Rectangle_11" data-name="Rectangle 11" width="123" height="12" transform="translate(0.401 -0.044)" fill="#fff" />
        </g>
    </g>
    <g id="Group_10" data-name="Group 10" transform="translate(0 24.479)">
        <g id="Group_9" data-name="Group 9">
            <path id="Path_4" data-name="Path 4" d="M195.34,60.283a19.749,19.749,0,0,0-25.819-10.648c-.172.072-.343.145-.513.222L119.386,75.6a30.26,30.26,0,0,0,3.006-13,30.6,30.6,0,1,0-54.92,18.359h-.255a41.994,41.994,0,0,0-39.01,27.168L11.872,164.433a19.6,19.6,0,1,0,36.8,13.482l6.4-20.367v88.569A30.507,30.507,0,0,0,15.366,292.29,28.193,28.193,0,0,0,0,317.3V368.58a6.118,6.118,0,0,0,6.117,6.12h61.2a6.118,6.118,0,0,0,6.12-6.117V317.3a28.128,28.128,0,0,0-10.92-22.154h46.32A28.123,28.123,0,0,0,97.915,317.3V368.58a6.118,6.118,0,0,0,6.117,6.12h61.2a6.118,6.118,0,0,0,6.12-6.117V317.3a28.193,28.193,0,0,0-15.366-25.008,30.572,30.572,0,0,0-27.472-51.831V115.272L184.692,86.1A19.749,19.749,0,0,0,195.34,60.283ZM91.794,44.239A18.359,18.359,0,1,1,73.436,62.6,18.359,18.359,0,0,1,91.794,44.239ZM36.718,252.079a18.359,18.359,0,1,1-18.359,18.359A18.359,18.359,0,0,1,36.718,252.079ZM61.2,362.46H12.239V317.3a16.056,16.056,0,0,1,16.037-16.034H45.159A16.057,16.057,0,0,1,61.2,317.3ZM159.11,317.3V362.46H110.153V317.3a16.056,16.056,0,0,1,16.037-16.034h16.883A16.056,16.056,0,0,1,159.11,317.3Zm-24.479-65.218a18.359,18.359,0,1,1-18.359,18.359A18.378,18.378,0,0,1,134.632,252.079Zm49.51-181.587a7.871,7.871,0,0,1-4.62,4.53l-59.947,31.1a6.121,6.121,0,0,0-3.3,5.433V246.117a30.186,30.186,0,0,0-9.522,36.788H97.914V178.871H85.675V282.9H64.6a30.315,30.315,0,0,0,2.694-12.239h.023V117.675a6.12,6.12,0,0,0-11.958-1.834L37.085,173.988a7.358,7.358,0,0,1-10.208,4.07,7.511,7.511,0,0,1-3.418-9.717L39.8,112.033A29.566,29.566,0,0,1,67.217,93.2h43.331a6.1,6.1,0,0,0,2.818-.687l60.823-31.572a7.533,7.533,0,0,1,9.631,3.568A7.445,7.445,0,0,1,184.142,70.492Z" transform="translate(0 -32)" fill="#fff" />
        </g>
    </g>
    <g id="Group_12" data-name="Group 12" transform="translate(195.828 232.254)">
        <g id="Group_11" data-name="Group 11">
            <path id="Path_5" data-name="Path 5" d="M314.07,356.133a30.6,30.6,0,1,0-43.269-.564q.279.286.565.564A28.194,28.194,0,0,0,256,381.141v51.282a6.118,6.118,0,0,0,6.117,6.12h61.2a6.118,6.118,0,0,0,6.12-6.116V381.141A28.193,28.193,0,0,0,314.07,356.133Zm-21.352-40.211a18.359,18.359,0,1,1-18.359,18.359A18.359,18.359,0,0,1,292.718,315.922ZM317.2,426.3H268.239V381.141a16.056,16.056,0,0,1,16.037-16.034h16.883A16.057,16.057,0,0,1,317.2,381.141Z" transform="translate(-256 -303.618)" fill="#fff" />
        </g>
    </g>
    <g id="Group_14" data-name="Group 14" transform="translate(293.742 232.254)">
        <g id="Group_13" data-name="Group 13">
            <path id="Path_6" data-name="Path 6" d="M442.07,356.133a30.6,30.6,0,1,0-43.269-.564q.279.286.565.564A28.194,28.194,0,0,0,384,381.141v51.282a6.118,6.118,0,0,0,6.117,6.12h61.2a6.118,6.118,0,0,0,6.12-6.116V381.141A28.193,28.193,0,0,0,442.07,356.133Zm-21.352-40.211a18.359,18.359,0,1,1-18.359,18.359A18.359,18.359,0,0,1,420.718,315.922ZM445.2,426.3H396.239V381.141a16.056,16.056,0,0,1,16.037-16.034h16.883A16.057,16.057,0,0,1,445.2,381.141Z" transform="translate(-384 -303.618)" fill="#fff" />
        </g>
    </g>
</svg>