<svg id="Capa_1" enable-background="new 0 0 512 512" height="512" viewBox="0 0 512 512" width="512" xmlns="http://www.w3.org/2000/svg"><g id="Group_Learning_1_"><g><path d="m331 512h-150v-47c0-24.814 20.186-45 45-45h60c24.814 0 45 20.186 45 45z"/></g><g><path d="m512 512h-150v-47c0-24.814 20.186-45 45-45h60c24.814 0 45 20.186 45 45z"/></g><g><path d="m150 512h-150v-47c0-24.814 20.186-45 45-45h60c24.814 0 45 20.186 45 45z"/></g><g><path d="m256 420c-24.814 0-45-20.186-45-45s20.186-45 45-45 45 20.186 45 45-20.186 45-45 45z"/></g><g><path d="m437 420c-24.814 0-45-20.186-45-45s20.186-45 45-45 45 20.186 45 45-20.186 45-45 45z"/></g><g><path d="m75 420c-24.814 0-45-20.186-45-45s20.186-45 45-45 45 20.186 45 45-20.186 45-45 45z"/></g><g><path d="m226 90h-45v90h60v-75c0-8.276-6.738-15-15-15z"/><path d="m271 105v75h60v-90h-45c-8.262 0-15 6.724-15 15z"/><path d="m31 0v270h188.994l36.006 34.321 36.006-34.321h188.994v-270zm330 210c-7.797 0-213.814 0-210 0v-150h75c11.567 0 22.02 4.508 30 11.704 7.98-7.196 18.433-11.704 30-11.704h75z"/></g></g></svg>