<svg xmlns="http://www.w3.org/2000/svg" width="375" height="361.995" viewBox="0 0 375 361.995">
    <path id="Books-icon" d="M72.481,122.546H38.2a3.915,3.915,0,0,0-3.923,3.906V339.8a3.915,3.915,0,0,0,3.923,3.906H72.481A3.915,3.915,0,0,0,76.4,339.8V126.452A3.915,3.915,0,0,0,72.481,122.546ZM68.559,335.9H42.125V130.358H68.559ZM59.264,53.544V88.408H72.481a3.906,3.906,0,1,1,0,7.813H38.2a3.906,3.906,0,1,1,0-7.813H51.419V53.544H38.2a3.906,3.906,0,1,1,0-7.813H72.481a3.906,3.906,0,1,1,0,7.813ZM51.419,322.736v-8.457a3.923,3.923,0,0,1,7.845,0v8.457a3.923,3.923,0,0,1-7.845,0Zm0-31.91V143.51a3.923,3.923,0,0,1,7.845,0V290.826a3.923,3.923,0,0,1-7.845,0Zm123.9-168.28H141.039a3.915,3.915,0,0,0-3.923,3.906V339.8a3.915,3.915,0,0,0,3.923,3.906h34.279a3.915,3.915,0,0,0,3.923-3.906V126.452A3.915,3.915,0,0,0,175.319,122.546ZM171.4,335.9H144.962V130.358H171.4Zm3.923-282.354a3.906,3.906,0,1,0,0-7.813H141.039a3.906,3.906,0,1,0,0,7.813h4.647V88.408h-4.647a3.906,3.906,0,1,0,0,7.813h34.279a3.906,3.906,0,1,0,0-7.813h-4.647V53.544ZM162.826,88.408h-9.294V53.544h9.294Zm-8.569,234.328v-8.457a3.923,3.923,0,0,1,7.845,0v8.457a3.923,3.923,0,0,1-7.845,0Zm0-31.91V143.51a3.923,3.923,0,0,1,7.845,0V290.826a3.923,3.923,0,0,1-7.845,0Zm220.68,55.6-61.21-335.9A3.9,3.9,0,0,0,312.1,8.019a3.943,3.943,0,0,0-2.934-.633L213.521,24.671V24.03a3.915,3.915,0,0,0-3.923-3.906H3.923A3.915,3.915,0,0,0,0,24.03V365.413a3.915,3.915,0,0,0,3.923,3.906H209.6a3.915,3.915,0,0,0,3.923-3.906V77.941L266.034,366.11a3.919,3.919,0,0,0,3.855,3.209,3.867,3.867,0,0,0,.7-.064L371.779,350.97a3.906,3.906,0,0,0,3.159-4.54ZM7.845,27.936h94.993v333.57H7.845Zm197.83,333.57H110.683V27.936H205.1a3.871,3.871,0,0,0-.272,2.277l.852,4.675V361.507Zm67.376-.635L213.521,34.186V32.611l93.188-16.84,59.809,328.21ZM293.8,114.259l-33.729,6.095a3.908,3.908,0,0,0-3.159,4.541l38.254,209.924a3.919,3.919,0,0,0,3.86,3.209,3.862,3.862,0,0,0,.7-.063l33.729-6.1a3.907,3.907,0,0,0,3.159-4.541L298.364,117.4A3.923,3.923,0,0,0,293.8,114.259Zm8.385,215.321L265.335,127.343l26.009-4.7L328.2,324.879Zm-13.1-241.224h0l8.432-1.523a3.907,3.907,0,1,0-1.4-7.688l-4.572.827-6.251-34.3,4.572-.827a3.907,3.907,0,1,0-1.4-7.688L237.87,46.3a3.906,3.906,0,0,0,.7,7.751,4.01,4.01,0,0,0,.7-.063l4.572-.827,6.251,34.3-4.572.827a3.906,3.906,0,0,0,.7,7.751,4.011,4.011,0,0,0,.7-.063l42.16-7.619Zm-5.26-6.99-9.145,1.652-6.251-34.3,9.145-1.652Zm-32.261-29.6,9.145-1.652,6.251,34.3-9.145,1.652Zm33,85.473,32.134,176.346a3.922,3.922,0,0,1-7.719,1.4L276.839,138.632a3.922,3.922,0,0,1,7.719-1.4Z" transform="translate(0 -7.324)" fill="#2b2b2b" />
</svg>