<svg xmlns="http://www.w3.org/2000/svg" width="374" height="374" viewBox="0 0 374 374">
    <g id="conference" transform="translate(-2 -2)">
        <path id="Path_7" data-name="Path 7" d="M33,15H45.5V27.5H33Z" transform="translate(162.217 68.026)" fill="#2b2b2b" />
        <path id="Path_8" data-name="Path 8" d="M29,15H41.5V27.5H29Z" transform="translate(141.286 68.026)" fill="#2b2b2b" />
        <path id="Path_9" data-name="Path 9" d="M20.746,76.984H43.154l23.164,23.164a6.249,6.249,0,0,0,4.418,1.831,6.167,6.167,0,0,0,2.393-.475,6.249,6.249,0,0,0,3.855-5.774V76.984H95.73a18.746,18.746,0,0,0,18.746-18.746V20.746A18.746,18.746,0,0,0,95.73,2H20.746A18.746,18.746,0,0,0,2,20.746V58.238A18.746,18.746,0,0,0,20.746,76.984ZM14.5,20.746A6.249,6.249,0,0,1,20.746,14.5H95.73a6.249,6.249,0,0,1,6.249,6.249V58.238a6.249,6.249,0,0,1-6.249,6.249H70.736a6.249,6.249,0,0,0-6.249,6.249v9.91L50.159,66.318a6.249,6.249,0,0,0-4.418-1.831H20.746A6.249,6.249,0,0,1,14.5,58.238Z" transform="translate(0)" fill="#2b2b2b" />
        <path id="Path_10" data-name="Path 10" d="M6,7H18.5V19.5H6Z" transform="translate(20.995 26.243)" fill="#2b2b2b" />
        <path id="Path_11" data-name="Path 11" d="M10,7H47.492V19.5H10Z" transform="translate(41.99 26.243)" fill="#2b2b2b" />
        <path id="Path_12" data-name="Path 12" d="M357.3,83.033H282.5a18.756,18.756,0,0,0-18.7,18.7V114.2H230.826a50.19,50.19,0,0,0,1.309-6.233h6.732A12.5,12.5,0,0,0,251.333,95.5V89.267A12.5,12.5,0,0,0,238.867,76.8h-6.233V68.821a43.515,43.515,0,0,0,18.7-35.655V8.233A6.233,6.233,0,0,0,245.1,2H170.3a43.683,43.683,0,0,0-43.633,43.633V58.1a18.756,18.756,0,0,0,18.7,18.7h-6.233a12.5,12.5,0,0,0-12.467,12.467V95.5a12.5,12.5,0,0,0,12.467,12.467h6.732a50.192,50.192,0,0,0,1.309,6.233H20.7A18.756,18.756,0,0,0,2,132.9V294.967a18.756,18.756,0,0,0,18.7,18.7H144.245L140.068,338.6H132.9a6.321,6.321,0,0,0-4.987,2.493l-18.7,24.933A6.233,6.233,0,0,0,114.2,376H263.8a6.233,6.233,0,0,0,4.987-9.973l-18.7-24.933A6.321,6.321,0,0,0,245.1,338.6h-7.168l-4.176-24.933H357.3a18.756,18.756,0,0,0,18.7-18.7V101.733a18.756,18.756,0,0,0-18.7-18.7ZM145.367,95.5h-6.233V89.267h6.233Zm93.5-6.233V95.5h-6.233V89.267Zm-93.5-24.933a6.233,6.233,0,0,1-6.233-6.233V45.633A31.167,31.167,0,0,1,170.3,14.467h68.567v18.7a30.936,30.936,0,0,1-12.342,24.746l-17.952-4.488a6.483,6.483,0,0,0-6.857,3.117,14.293,14.293,0,0,0-4.8,3.553,21.312,21.312,0,0,1-10.908,5.8,30.855,30.855,0,0,0,2.618-5.735A14.337,14.337,0,0,0,188.314,49a6.233,6.233,0,0,0-5.548-3.366h-6.233a6.233,6.233,0,0,0-2.805.686L148.795,58.786a6.159,6.159,0,0,0-3.428,5.548Zm26.118,146.982a6.171,6.171,0,0,0,10.6-.81L189,196.729l6.919,13.776a6.19,6.19,0,0,0,5.049,3.428h.5a6.127,6.127,0,0,0,5.049-2.618l28.923-40.454a43.727,43.727,0,0,1,34.595,43.072v24.933H107.967V213.933a43.727,43.727,0,0,1,34.595-43.072ZM155.34,167.308l7.044-2.369L181.4,184.013l-5.8,11.656ZM202.4,195.67l-5.8-11.656,19.012-19.074,7.044,2.369ZM189,173.978l-12.03-12.03,2.93-17.578a42.018,42.018,0,0,0,18.2,0l2.93,17.578Zm0-41.078a31.167,31.167,0,0,1-31.167-31.167V68.2l17.516-8.789c-.748,1.247-1.5,2.306-2.182,3.241A9.9,9.9,0,0,0,171.048,73.5a10.4,10.4,0,0,0,8.54,5.049A33.161,33.161,0,0,0,206.079,68.51a1.671,1.671,0,0,1,1.06-.686,9.618,9.618,0,0,0,2.493-1.309l10.534,2.68v32.538A31.167,31.167,0,0,1,189,132.9Zm52.983,218.167,9.35,12.467H126.667l9.35-12.467ZM152.722,338.6l4.176-24.933h64.2l4.176,24.933Zm210.811-43.633A6.233,6.233,0,0,1,357.3,301.2H20.7a6.233,6.233,0,0,1-6.233-6.233v-18.7H363.533Zm0-31.167H14.467V132.9a6.233,6.233,0,0,1,6.233-6.233H153.221a44.363,44.363,0,0,0,14.773,13.277L166,151.974a6.046,6.046,0,0,0-3.927-.062l-18.264,6.109A56.1,56.1,0,0,0,95.5,213.933V245.1a6.233,6.233,0,0,0,6.233,6.233H276.267A6.233,6.233,0,0,0,282.5,245.1V213.933a56.1,56.1,0,0,0-48.308-55.913l-18.264-6.109a6.046,6.046,0,0,0-3.927.062l-1.995-12.03a44.363,44.363,0,0,0,14.773-13.277H263.8v12.467a18.756,18.756,0,0,0,18.7,18.7h18.7v18.7a6.152,6.152,0,0,0,3.865,5.735,5.223,5.223,0,0,0,2.369.5,6.277,6.277,0,0,0,4.426-1.808l23.063-23.126H357.3a18.7,18.7,0,0,0,6.233-1.122Zm0-124.667a6.233,6.233,0,0,1-6.233,6.233H332.367a6.439,6.439,0,0,0-4.426,1.808l-14.274,14.337V151.6a6.233,6.233,0,0,0-6.233-6.233H282.5a6.233,6.233,0,0,1-6.233-6.233v-37.4A6.233,6.233,0,0,1,282.5,95.5h74.8a6.233,6.233,0,0,1,6.233,6.233Z" transform="translate(0 0)" fill="#2b2b2b" />
        <path id="Path_13" data-name="Path 13" d="M56,20H68.5V32.5H56Z" transform="translate(282.508 94.19)" fill="#2b2b2b" />
        <path id="Path_14" data-name="Path 14" d="M48,20H85.492V32.5H48Z" transform="translate(240.518 94.19)" fill="#2b2b2b" />
    </g>
</svg>