<svg id="Capa_1" enable-background="new 0 0 512 512" height="512" viewBox="0 0 512 512" width="512" xmlns="http://www.w3.org/2000/svg"><g><g><path d="m200.864 311.615 31.134-12.224-18.929-18.958z"/><path d="m467.583 74.661-30.13-30.176-208.773 209.095 30.13 30.176z"/><path d="m505.77 6.239c-8.308-8.319-21.824-8.319-30.13 0l-16.975 17.002 30.13 30.176 16.975-17.001c8.307-8.32 8.307-21.857 0-30.177z"/></g><g><path d="m291.926 422.687c-22.277 0-33.676 11.895-36.266 14.993-2.727 4.363-7.52 7.048-12.712 7.048-5.092 0-9.838-2.584-12.596-6.799-2.136-2.639-13.541-15.242-36.471-15.242h-193.881v42.02c.747 8.41 7.554 15.227 15.951 15.227h174.869c5.629 0 10.887 3.069 13.432 8.097 6.945 13.717 20.898 23.268 37.146 23.926 1.193.058 2.388.058 3.581 0 16.248-.658 30.201-10.208 37.146-23.926 2.546-5.028 7.803-8.097 13.433-8.097h174.868c8.397 0 15.204-6.817 15.204-15.227l.086-42.02z"/><path d="m193.881 392.643c20.779 0 36.833 7.109 47.706 15.022h2.633c10.873-7.913 26.926-15.022 47.706-15.022h193.851l.6-294.317-216.962 217.296c-.004.004-.012.004-.017.007-1.438 1.437-3.167 2.592-5.115 3.357l-63.094 24.771c-2.121 5.716-7.602 9.797-14.048 9.797h-112.301c-8.284 0-14.999-6.726-14.999-15.022s6.715-15.022 14.999-15.022h89.148l11.759-30.044h-100.907c-8.284 0-14.999-6.726-14.999-15.022s6.715-15.022 14.999-15.022h112.302c.12 0 .237.015.357.018l6.005-15.342c.761-1.945 1.91-3.673 3.34-5.111.008-.008.011-.02.019-.028l216.253-216.588h-100.078c-28.25 0-58.945 17.141-69.849 41.753-10.904-24.611-41.599-41.753-69.849-41.753h-158.341c-8.284 0-14.999 6.725-14.999 15.022v351.25zm-119.041-249.398h112.302c8.284 0 14.999 6.726 14.999 15.022s-6.715 15.022-14.999 15.022h-112.302c-8.284 0-14.999-6.726-14.999-15.022 0-8.297 6.715-15.022 14.999-15.022zm0 60.088h112.302c8.284 0 14.999 6.726 14.999 15.022s-6.715 15.022-14.999 15.022h-112.302c-8.284 0-14.999-6.726-14.999-15.022s6.715-15.022 14.999-15.022z"/></g></g></svg>